
        <svg xmlns="http://www.w3.org/2000/svg" xmlns:xlink="http://www.w3.org/1999/xlink" version="1.1" width="3169.0140845070423" 
        height="984.2180836402276" viewBox="0 0 3169.0140845070423 984.2180836402276">
			
			<g transform="scale(8.450704225352112) translate(10, 10)">
				<defs id="SvgjsDefs8664"></defs><g id="SvgjsG8665" featureKey="tOsHRK-0" transform="matrix(1.0600183010101318,0,0,1.0600183010101318,-5.300091531185982,-5.300091531185982)" fill="#83ffe6"><title xmlns="http://www.w3.org/2000/svg">Noun-Project</title><description xmlns="http://www.w3.org/2000/svg">Created with Sketch.</description><g xmlns="http://www.w3.org/2000/svg" stroke="none" stroke-width="1" fill="none" fill-rule="evenodd" sketch:type="MSPage" xmlns:sketch="http://www.bohemiancoding.com/sketch/ns"><g sketch:type="MSArtboardGroup" fill="#83ffe6"><path d="M88.0787097,58.6371875 C83.2041935,50.4584375 86.1364516,39.97625 94.6225806,35.2146875 L85.4948387,19.895 C82.8877419,21.3771875 79.853871,22.2265625 76.6167742,22.2265625 C66.8590323,22.2265625 58.9506452,14.5146875 58.9506452,5 L40.6951613,5.0028125 C40.7183871,7.9390625 39.9635484,10.9175 38.3406452,13.6371875 C33.466129,21.8159375 22.6312903,24.5975 14.1306452,19.855625 L5,35.1753125 C7.62451613,36.62375 9.90064516,38.7415625 11.5177419,41.4584375 C16.3835484,49.623125 13.4687097,60.0828125 5.0116129,64.855625 L14.1422581,80.1753125 C16.7406452,78.7071875 19.76,77.8690625 22.9796774,77.8690625 C32.7054839,77.8690625 40.5935484,85.533125 40.6429032,95.0028125 L58.9012903,95.0028125 C58.8925806,92.0946875 59.6532258,89.1528125 61.2558065,86.4584375 C66.1216129,78.29375 76.9303226,75.5065625 85.4251613,80.2175 L94.5558065,64.8978125 C91.9487097,63.4521875 89.6870968,61.34 88.0787097,58.6371875 L88.0787097,58.6371875 Z M49.8112903,75.835625 C35.0832258,75.835625 23.1451613,64.270625 23.1451613,50.0028125 C23.1451613,35.735 35.0832258,24.17 49.8112903,24.17 C64.5393548,24.17 76.4774194,35.735 76.4774194,50.0028125 C76.4774194,64.270625 64.5393548,75.835625 49.8112903,75.835625 Z M52.7145161,38.7528125 L58.5209677,38.7528125 L46.9080645,61.2528125 L41.1016129,61.2528125 L52.7145161,38.7528125 Z M61.4241935,61.2528125 L67.2306452,61.2528125 L73.0370968,50.0028125 L67.2306452,38.7528125 L61.4241935,38.7528125 L67.2306452,50.0028125 L61.4241935,61.2528125 Z M38.1983871,61.2528125 L32.3919355,61.2528125 L26.5854839,50.0028125 L32.3919355,38.7528125 L38.1983871,38.7528125 L32.3919355,50.0028125 L38.1983871,61.2528125 Z" sketch:type="MSShapeGroup"></path></g></g></g><g id="SvgjsG8666" featureKey="dVtZHI-0" transform="matrix(3.5450925827026367,0,0,3.5450925827026367,107.90981478275921,1.729444348277653)" fill="#83ffe6"><path d="M8.5 13.4 l-5 0 l0 5.3 l5 0 c1.1 0 2 -0.9 2 -2 l0 -1.3 c0 -1.1 -0.9 -2 -2 -2 z M9.6 12.5 l0 0.1 s2.4 0.4 2.4 2.8 l0 1.3 c0 1.9 -1.4 3.3 -3.5 3.3 l-6.5 0 l0 -14 l5.8 0 c2.1 0 3.5 1.4 3.5 3.3 l0 0.8 c0 2 -1.7 2.4 -1.7 2.4 z M7.8 7.300000000000001 l-4.3 0 l0 4.8 l4.3 0 c1.1 0 2 -0.9 2 -2 l0 -0.8 c0 -1.1 -0.9 -2 -2 -2 z M16 16.4 l-1.2 3.6 l-1.5 0 l0 -0.6 l4.9 -13.4 l1.7 0 l4.9 13.4 l0 0.6 l-1.5 0 l-1.2 -3.6 l-6.1 0 z M21.6 15.1 l-2.5 -7.3 l-0.1 0 l-2.5 7.3 l5.1 0 z M26.200000000000003 9.9 l0 -0.6 c0 -1.9 1.4 -3.3 3.5 -3.3 l5.5 0 l0 0.9 l-0.4 0.4 l-5.1 0 c-1.1 0 -2 0.9 -2 2 l0 0.6 c0 1.1 0.6 1.68 1.6 1.9 l3.7 0.8 c1.4 0.3 2.5 1.4 2.5 3.2 l0 0.9 c0 1.9 -1.4 3.3 -3.5 3.3 l-6 0 l0 -1.3 l6 0 c1.1 0 2 -0.9 2 -2 l0 -0.9 c0 -1.1 -0.6 -1.68 -1.6 -1.9 l-3.7 -0.8 c-1.4 -0.3 -2.5 -1.4 -2.5 -3.2 z  M38.400000000000006 20 l0 -14 l9.1 0 l0 0.9 l-0.4 0.4 l-7.2 0 l0 4.9 l5.7 0 l0 1.3 l-5.7 0 l0 5.2 l7.6 0 l0 1.3 l-9.1 0 z M53.20000000000001 20.2 c-2.1 0 -3.5 -1.4 -3.5 -3.3 l0 -7.6 c0 -1.9 1.4 -3.3 3.5 -3.3 l5.3 0 l0 0.9 l-0.4 0.4 l-4.9 0 c-1.1 0 -2 0.9 -2 2 l0 2.3 l4.5 0 c2.1 0 3.5 1.4 3.5 3.3 l0 2 c0 1.9 -1.4 3.3 -3.5 3.3 l-2.5 0 z M51.20000000000001 16.9 c0 1.1 0.9 2 2 2 l2.5 0 c1.1 0 2 -0.9 2 -2 l0 -2 c0 -1.1 -0.9 -2 -2 -2 l-4.5 0 l0 4 z M64.10000000000001 20 l-1.4 0 l0 -0.6 l5.3 -12 l0 -0.1 l-7.6 0 l0 -1.3 l9.3 0 l0 1.3 z"></path></g>
			</g>
		</svg>
	